<svg xmlns="http://www.w3.org/2000/svg" width="139" height="139" viewBox="0 0 139 139">
  <path fill="white" d="M69.4,0.3 C31.4,0.3 0.5,31.1 0.5,69.2 C0.5,107.2 31.3,138.1 69.4,138.1 C107.4,138.1 138.3,107.3 138.3,69.2 C138.3,31.2 107.5,0.3 69.4,0.3 Z M53.7,72.1 L26.5,88.3 C25.9,88.6 25.3,88.8 24.6,88.8 C23.4,88.8 22.2,88.2 21.5,87 C20.5,85.3 21,83 22.8,82 L44.7,69 L22.8,56.3 C21.1,55.3 20.5,53.1 21.5,51.3 C22.5,49.6 24.7,49 26.5,50 L53.7,65.8 C54.8,66.4 55.5,67.6 55.5,68.9 C55.5,70.3 54.8,71.5 53.7,72.1 Z M72.2,109.1 L66.7,109.1 L66.7,29.4 L72.2,29.4 L72.2,109.1 Z M116,82.1 C117.7,83.1 118.3,85.3 117.3,87.1 C116.6,88.3 115.4,88.9 114.2,88.9 C113.6,88.9 112.9,88.7 112.4,88.4 L85.2,72.6 C84.1,72 83.4,70.8 83.4,69.5 C83.4,68.2 84.1,67 85.2,66.4 L112.4,50.2 C114.1,49.2 116.4,49.7 117.4,51.5 C118.4,53.2 117.9,55.5 116.1,56.5 L94.2,69.5 L116,82.1 Z"/>
</svg>
